<svg xmlns="http://www.w3.org/2000/svg" viewBox="0 0 100 100"><path d="M94.7 51.6c-.5-.2-1.1-.2-1.6.1L72.3 68.5l-16.4-1.3c.7-.6 1.4-1.3 2-2 1.6-1.4 3.1-2.8 4.4-4.4 1.4-1.5 1.7-3.7.7-5.4-.8-1.3-2.3-2.1-3.8-2-1.1 0-2.1.3-3 1L37.8 65.7h-1.7c-3.3 0-6.6 1.2-9.1 3.4l-3.7 3.3c-.6.5-.7 1.4-.2 2 .5.5 1.4.6 2 .1l3.7-3.3c2-1.7 4.5-2.7 7.1-2.7l11.1.8 5.6.6h.1c.2 0 .3 0 .4-.1l19.4 1.6c.4 0 .7-.1 1-.3l19.1-15.3v5L72.2 79.9H40c-.4 0-.8.1-1 .4L27.6 93.2c-.5.6-.5 1.4.1 2 .5.6 1.4.6 1.9.1l.1-.1 11-12.4h32.1c.4 0 .7-.1 1-.4l21.4-20c.3-.3.4-.6.4-1v-8.6c0-.5-.4-1-.9-1.2zM52.2 67l-4.8-.4-4.6-.4 15-9.1c.1 0 .1-.1.1-.1.4-.3.8-.4 1.3-.4s1 .2 1.4.6c.3.7.2 1.6-.4 2.1-1.3 1.5-2.6 2.9-4.1 4.1-1.4 1-2.6 2.3-3.9 3.6zM19.2 76.1l-1.4 1.3c-.6.5-.7 1.4-.2 2 .2.4.6.6 1 .6s.7-.2 1-.4l1.4-1.3c.6-.5.6-1.4.1-2-.5-.6-1.3-.7-1.9-.2zM15.5 81.4c-.5-.5-1.4-.6-2-.1L5 88.9c-.6.5-.7 1.4-.2 2 .2.4.6.6 1 .6s.7-.2 1-.4l8.6-7.6c.5-.6.6-1.5.1-2.1zM38.6 22.8v23c0 .7.5 1.4 1.3 1.4H80c.7 0 1.4-.5 1.4-1.3v-23c0-.7-.5-1.4-1.3-1.4H40c-.8 0-1.4.5-1.4 1.3zm39.9 21.5h-2.6c.5-1.2 1.4-2.1 2.6-2.6v2.6zm0-20v2.6c-1.2-.5-2.1-1.4-2.6-2.6h2.6zm-37.1 0H44c-.5 1.2-1.4 2.1-2.6 2.6v-2.6zm0 5.6c2.8-.5 5-2.7 5.6-5.6h25.9c.5 2.8 2.7 5 5.6 5.6v8.8c-2.8.5-5 2.7-5.6 5.6H47c-.5-2.8-2.7-5-5.6-5.6v-8.8zm0 11.8c1.2.5 2.1 1.4 2.6 2.6h-2.6v-2.6z"/><path d="M59.8 41.4h.1c3.9 0 7.1-3.2 7.1-7.1 0-3.9-3.2-7.1-7.1-7.1-3.9 0-7.1 3.2-7.1 7.1 0 3.9 3.1 7.1 7 7.1zm0-11.4h.2c2.4 0 4.3 1.9 4.3 4.3s-1.9 4.3-4.3 4.3-4.3-1.9-4.3-4.3c-.1-2.3 1.8-4.2 4.1-4.3z"/><path d="M32.9 17.1v24.4c0 .7.5 1.4 1.3 1.4h.2c.7 0 1.4-.5 1.4-1.3v-23h39.9c.7 0 1.4-.5 1.4-1.3v-.2c0-.7-.5-1.4-1.3-1.4H34.3c-.8 0-1.4.6-1.4 1.4z"/><path d="M27.2 11.4v24.4c0 .7.5 1.4 1.3 1.4h.2c.7 0 1.4-.5 1.4-1.3v-23H70c.7 0 1.4-.5 1.4-1.3v-.2c0-.7-.5-1.4-1.3-1.4H28.6c-.8 0-1.4.6-1.4 1.4z"/><path d="M24.3 30.2v-23h39.9c.7 0 1.4-.5 1.4-1.3v-.2c0-.7-.5-1.4-1.3-1.4H22.9c-.7 0-1.4.5-1.4 1.3V30c0 .7.5 1.4 1.3 1.4h.2c.6.1 1.3-.5 1.3-1.2z"/></svg>