<svg xmlns="http://www.w3.org/2000/svg" viewBox="0 0 100 100"><path d="M24.7 64.3v-3.2c3.5 0 6.3-2.8 6.3-6.3s-2.8-6.3-6.3-6.3v-6.3c1.7 0 3.2 1.4 3.2 3.2H31c0-3.5-2.8-6.3-6.3-6.3v-3.2h-3.2V39c-3.5 0-6.3 2.8-6.3 6.3s2.8 6.3 6.3 6.3V58c-1.7 0-3.2-1.4-3.2-3.2h-3.2c0 3.5 2.8 6.3 6.3 6.3v3.2h3.3zm0-12.6c1.7 0 3.2 1.4 3.2 3.1 0 1.7-1.4 3.2-3.1 3.2h-.1v-6.3zm-6.3-6.4c0-1.7 1.4-3.2 3.2-3.2v6.3c-1.8.1-3.2-1.3-3.2-3.1z"/><path d="M23.1 70.6c11.3 0 20.5-9.1 20.6-20.5V50c0-11.4-9.2-20.6-20.6-20.6-11.4 0-20.6 9.2-20.6 20.6.1 11.4 9.3 20.6 20.6 20.6zM5.7 50.2c0-.1 0-.1 0 0 0-9.7 7.8-17.5 17.4-17.5 9.6 0 17.4 7.8 17.4 17.4 0 9.6-7.8 17.4-17.4 17.4-9.6 0-17.3-7.7-17.4-17.3zM92.9 23.2h-35c-2.6 0-4.7 2-4.7 4.6v44.5c0 2.6 2 4.7 4.6 4.7h35c2.6 0 4.7-2 4.7-4.6V27.9c0-2.5-2.1-4.7-4.6-4.7zm1.4 4.7v44.3c0 .8-.6 1.5-1.4 1.6h-35c-.8 0-1.5-.6-1.6-1.4V27.9c0-.8.6-1.5 1.4-1.6h35c.8 0 1.5.6 1.6 1.4v.2z"/><path d="M87.9 29.5H59.5v41.1H88v-6.3h3.2v-3.2H88V39h3.2v-3.2H88v-6.3zm-3.1 6.3h-3.2V39h3.2v22.1h-3.2v3.2h3.2v3.2H62.6V32.7h22.1v3.1z"/><path d="M68.2 53.1l-1.3 1.3 2.2 2.2 1.3-1.3c.5.3 1 .5 1.6.6V58h3.2v-1.7c.6-.1 1.1-.3 1.6-.6l1.3 1.3 2.2-2.2-1.1-1.4c.3-.5.5-1 .6-1.6h1.9v-3.2H80c-.1-.6-.3-1.1-.6-1.6l1.3-1.3-2.2-2.2-1.4 1.3c-.5-.3-1-.5-1.6-.6v-1.9h-3.2V44c-.6.1-1.1.3-1.6.6l-1.3-1.3-2.2 2.2 1.3 1.3c-.3.5-.5 1-.6 1.6H66v3.2h1.7c0 .5.2 1 .5 1.5zm5.5-6.2c1.7 0 3.2 1.4 3.2 3.2 0 1.7-1.4 3.2-3.2 3.2-1.7 0-3.2-1.4-3.2-3.2.1-1.8 1.5-3.2 3.2-3.2zM50 88c-8.2 0-16.2-2.7-22.8-7.6l3.3-3.3-12.2-3.3L21.5 86l3.3-3.3c7.2 5.5 16.1 8.5 25.1 8.5 9.6 0 18.9-3.3 26.2-9.5L74 79.3C67.4 84.9 58.8 88 50 88zM50 12.1c5.4 0 10.7 1.1 15.7 3.3l-2.5 4 12.4.6-5.7-11.2-2.5 4C49.7 4.6 28.8 9.9 17.1 25.4l2.5 1.9C26.8 17.7 38 12.1 50 12.1z"/></svg>