<svg xmlns="http://www.w3.org/2000/svg" viewBox="0 0 100 100"><path d="M81.258 34.367c-4.9 0-9.5-2.3-12.5-6.2l-34.5 20.7c.1.4.1.8.1 1.2 0 .5-.1 1-.2 1.5l34.4 20.7c5-7 14.8-8.5 21.7-3.4s8.5 14.8 3.4 21.7-14.8 8.5-21.7 3.4c-4.1-2.9-6.4-7.7-6.4-12.7 0-.6.1-1.1.2-1.7l-34.4-20.4c-5.1 7-14.8 8.5-21.8 3.5-7-5.1-8.5-14.8-3.5-21.8 5.1-7 14.8-8.5 21.8-3.5 1.2.9 2.3 1.9 3.2 3.2l34.7-20.3c0-.5-.2-1-.2-1.5 0-8.6 7-15.6 15.6-15.6s15.6 7 15.6 15.6c.1 8.6-6.9 15.6-15.5 15.6zm0 54.7c4.3 0 7.8-3.5 7.8-7.8s-3.5-7.8-7.8-7.8-7.8 3.5-7.8 7.8 3.5 7.8 7.8 7.8zm-62.5-46.9c-4.3 0-7.8 3.5-7.8 7.8s3.5 7.8 7.8 7.8 7.8-3.5 7.8-7.8-3.5-7.8-7.8-7.8zm62.5-31.2c-4.3 0-7.8 3.5-7.8 7.8s3.5 7.8 7.8 7.8 7.8-3.5 7.8-7.8-3.5-7.8-7.8-7.8z" fill-rule="evenodd" clip-rule="evenodd" fill="#fff"/></svg>