<?xml version="1.0" encoding="utf-8"?>
<!-- Generator: Adobe Illustrator 23.0.4, SVG Export Plug-In . SVG Version: 6.00 Build 0)  -->
<svg version="1.1" id="Layer_1" xmlns="http://www.w3.org/2000/svg" xmlns:xlink="http://www.w3.org/1999/xlink" x="0px" y="0px"
	 viewBox="0 0 100 100" style="enable-background:new 0 0 100 100;" xml:space="preserve">
<style type="text/css">
	.st0{fill:#FFFFFF;}
</style>
<g>
	<path class="st0" d="M5.9,29.7h88.3c2,0,3.6-1.6,3.6-3.6c0-2-1.6-3.6-3.6-3.6H5.9c-2,0-3.6,1.6-3.6,3.6C2.3,28.1,3.9,29.7,5.9,29.7
		z"/>
	<path class="st0" d="M5.9,53.6h52.5c2,0,3.6-1.6,3.6-3.6s-1.6-3.6-3.6-3.6H5.9c-2,0-3.6,1.6-3.6,3.6S3.9,53.6,5.9,53.6z"/>
	<path class="st0" d="M94.1,70.3H5.9c-2,0-3.6,1.6-3.6,3.6s1.6,3.6,3.6,3.6h88.3c2,0,3.6-1.6,3.6-3.6S96.1,70.3,94.1,70.3z"/>
</g>
</svg>
