<?xml version="1.0" encoding="utf-8"?>
<!-- Generator: Adobe Illustrator 23.0.4, SVG Export Plug-In . SVG Version: 6.00 Build 0)  -->
<svg version="1.1" id="Layer_1" xmlns="http://www.w3.org/2000/svg" xmlns:xlink="http://www.w3.org/1999/xlink" x="0px" y="0px"
	 viewBox="0 0 100 100" style="enable-background:new 0 0 100 100;" xml:space="preserve">
<g>
	<path d="M24.7,64.3v-3.2c3.5,0,6.3-2.8,6.3-6.3c0-3.5-2.8-6.3-6.3-6.3v-6.3c1.7,0,3.2,1.4,3.2,3.2H31c0-3.5-2.8-6.3-6.3-6.3v-3.2
		h-3.2V39c-3.5,0-6.3,2.8-6.3,6.3c0,3.5,2.8,6.3,6.3,6.3V58c-1.7,0-3.2-1.4-3.2-3.2h-3.2c0,3.5,2.8,6.3,6.3,6.3v3.2H24.7z
		 M24.7,51.7c1.7,0,3.2,1.4,3.2,3.1c0,1.7-1.4,3.2-3.1,3.2c0,0-0.1,0-0.1,0V51.7z M18.4,45.3c0-1.7,1.4-3.2,3.2-3.2v6.3
		C19.8,48.5,18.4,47.1,18.4,45.3z"/>
	<path d="M23.1,70.6c11.3,0,20.5-9.1,20.6-20.5c0,0,0-0.1,0-0.1c0-11.4-9.2-20.6-20.6-20.6c-11.4,0-20.6,9.2-20.6,20.6
		C2.6,61.4,11.8,70.6,23.1,70.6C23.1,70.6,23.1,70.6,23.1,70.6z M5.7,50.2C5.7,50.1,5.7,50.1,5.7,50.2c0-9.7,7.8-17.5,17.4-17.5
		c9.6,0,17.4,7.8,17.4,17.4c0,9.6-7.8,17.4-17.4,17.4c0,0,0,0,0,0C13.5,67.5,5.8,59.8,5.7,50.2z"/>
	<path d="M92.9,23.2c-0.1,0-0.1,0-0.2,0H57.9c-2.6,0-4.7,2-4.7,4.6c0,0.1,0,0.1,0,0.2v44.3c0,2.6,2,4.7,4.6,4.7c0.1,0,0.1,0,0.2,0
		h34.8c2.6,0,4.7-2,4.7-4.6c0-0.1,0-0.1,0-0.2V27.9C97.5,25.4,95.4,23.2,92.9,23.2z M94.3,27.9v44.3c0,0.8-0.6,1.5-1.4,1.6
		c-0.1,0-0.1,0-0.2,0H57.9c-0.8,0-1.5-0.6-1.6-1.4c0-0.1,0-0.1,0-0.2V27.9c0-0.8,0.6-1.5,1.4-1.6c0.1,0,0.1,0,0.2,0h34.8
		c0.8,0,1.5,0.6,1.6,1.4C94.3,27.8,94.3,27.9,94.3,27.9z"/>
	<path d="M87.9,29.5H59.5v41.1h28.5v-6.3h3.2v-3.2h-3.2V39h3.2v-3.2h-3.2V29.5z M84.8,35.8h-3.2V39h3.2v22.1h-3.2v3.2h3.2v3.2H62.6
		V32.7h22.1V35.8z"/>
	<path d="M68.2,53.1l-1.3,1.3l2.2,2.2l1.3-1.3c0.5,0.3,1,0.5,1.6,0.6V58h3.2v-1.7c0.6-0.1,1.1-0.3,1.6-0.6l1.3,1.3l2.2-2.2l-1.1-1.4
		c0.3-0.5,0.5-1,0.6-1.6h1.9v-3.2h-1.7c-0.1-0.6-0.3-1.1-0.6-1.6l1.3-1.3l-2.2-2.2l-1.4,1.3c-0.5-0.3-1-0.5-1.6-0.6v-1.9h-3.2v1.7
		c-0.6,0.1-1.1,0.3-1.6,0.6l-1.3-1.3l-2.2,2.2l1.3,1.3c-0.3,0.5-0.5,1-0.6,1.6h-1.9v3.2h1.7C67.7,52.1,67.9,52.6,68.2,53.1z
		 M73.7,46.9c1.7,0,3.2,1.4,3.2,3.2c0,1.7-1.4,3.2-3.2,3.2h0c-1.7,0-3.2-1.4-3.2-3.2C70.6,48.3,72,46.9,73.7,46.9z"/>
	<path d="M50,88c-8.2,0-16.2-2.7-22.8-7.6l3.3-3.3l-12.2-3.3L21.5,86l3.3-3.3c7.2,5.5,16.1,8.5,25.1,8.5c9.6,0,18.9-3.3,26.2-9.5
		l-2.1-2.4C67.4,84.9,58.8,88,50,88z"/>
	<path d="M50,12.1c5.4,0,10.7,1.1,15.7,3.3l-2.5,4L75.6,20L69.9,8.8l-2.5,4C49.7,4.6,28.8,9.9,17.1,25.4l2.5,1.9
		C26.8,17.7,38,12.1,50,12.1z"/>
</g>
</svg>
