<?xml version="1.0" encoding="utf-8"?>
<!-- Generator: Adobe Illustrator 23.0.4, SVG Export Plug-In . SVG Version: 6.00 Build 0)  -->
<svg version="1.1" id="Layer_1" xmlns="http://www.w3.org/2000/svg" xmlns:xlink="http://www.w3.org/1999/xlink" x="0px" y="0px"
	 viewBox="0 0 100 100" style="enable-background:new 0 0 100 100;" xml:space="preserve">
<g>
	<path d="M94.7,51.6c-0.5-0.2-1.1-0.2-1.6,0.1L72.3,68.5l-16.4-1.3c0.7-0.6,1.4-1.3,2-2c1.6-1.4,3.1-2.8,4.4-4.4
		c1.4-1.5,1.7-3.7,0.7-5.4c-0.8-1.3-2.3-2.1-3.8-2c-1.1,0-2.1,0.3-3,1L37.8,65.7h-1.7c-3.3,0-6.6,1.2-9.1,3.4l-3.7,3.3
		c-0.6,0.5-0.7,1.4-0.2,2c0,0,0,0,0,0c0.5,0.5,1.4,0.6,2,0.1l3.7-3.3c2-1.7,4.5-2.7,7.1-2.7l11.1,0.8l5.6,0.6h0.1
		c0.2,0,0.3,0,0.4-0.1l19.4,1.6c0.4,0,0.7-0.1,1-0.3l19.1-15.3v5L72.2,79.9H40c-0.4,0-0.8,0.1-1,0.4L27.6,93.2
		c-0.5,0.6-0.5,1.4,0.1,2c0,0,0,0,0,0c0.5,0.6,1.4,0.6,1.9,0.1c0,0,0,0,0.1-0.1l11-12.4h32.1c0.4,0,0.7-0.1,1-0.4l21.4-20
		c0.3-0.3,0.4-0.6,0.4-1v-8.6C95.6,52.3,95.2,51.8,94.7,51.6z M52.2,67l-4.8-0.4l-4.6-0.4l15-9.1c0.1,0,0.1-0.1,0.1-0.1c0,0,0,0,0,0
		c0.4-0.3,0.8-0.4,1.3-0.4c0.5,0,1,0.2,1.4,0.6c0.3,0.7,0.2,1.6-0.4,2.1c-1.3,1.5-2.6,2.9-4.1,4.1C54.7,64.4,53.5,65.7,52.2,67z"/>
	<path d="M19.2,76.1l-1.4,1.3c-0.6,0.5-0.7,1.4-0.2,2c0,0,0,0,0,0c0.2,0.4,0.6,0.6,1,0.6c0.4,0,0.7-0.2,1-0.4l1.4-1.3
		c0.6-0.5,0.6-1.4,0.1-2C20.6,75.7,19.8,75.6,19.2,76.1z"/>
	<path d="M15.5,81.4c-0.5-0.5-1.4-0.6-2-0.1l-8.5,7.6c-0.6,0.5-0.7,1.4-0.2,2c0,0,0,0,0,0c0.2,0.4,0.6,0.6,1,0.6
		c0.4,0,0.7-0.2,1-0.4l8.6-7.6C15.9,82.9,16,82,15.5,81.4C15.5,81.4,15.5,81.4,15.5,81.4z"/>
	<path d="M38.6,22.8c0,0.1,0,0.1,0,0.2v22.8c0,0.7,0.5,1.4,1.3,1.4c0.1,0,0.1,0,0.2,0h39.9c0.7,0,1.4-0.5,1.4-1.3c0-0.1,0-0.1,0-0.2
		V22.9c0-0.7-0.5-1.4-1.3-1.4c-0.1,0-0.1,0-0.2,0H40C39.2,21.5,38.6,22,38.6,22.8z M78.5,44.3h-2.6c0.5-1.2,1.4-2.1,2.6-2.6V44.3z
		 M78.5,24.3v2.6c-1.2-0.5-2.1-1.4-2.6-2.6H78.5z M41.4,24.3H44c-0.5,1.2-1.4,2.1-2.6,2.6V24.3z M41.4,29.9c2.8-0.5,5-2.7,5.6-5.6
		h25.9c0.5,2.8,2.7,5,5.6,5.6v8.8c-2.8,0.5-5,2.7-5.6,5.6H47c-0.5-2.8-2.7-5-5.6-5.6V29.9z M41.4,41.7c1.2,0.5,2.1,1.4,2.6,2.6h-2.6
		V41.7z"/>
	<path d="M59.8,41.4c0,0,0.1,0,0.1,0c3.9,0,7.1-3.2,7.1-7.1c0-3.9-3.2-7.1-7.1-7.1c-3.9,0-7.1,3.2-7.1,7.1
		C52.8,38.2,55.9,41.4,59.8,41.4z M59.8,30c0.1,0,0.1,0,0.2,0c2.4,0,4.3,1.9,4.3,4.3c0,2.4-1.9,4.3-4.3,4.3c-2.4,0-4.3-1.9-4.3-4.3
		C55.6,32,57.5,30.1,59.8,30z"/>
	<path d="M32.9,17.1c0,0.1,0,0.1,0,0.2v24.2c0,0.7,0.5,1.4,1.3,1.4c0.1,0,0.1,0,0.2,0c0.7,0,1.4-0.5,1.4-1.3c0-0.1,0-0.1,0-0.2V18.6
		h39.9c0.7,0,1.4-0.5,1.4-1.3c0-0.1,0-0.1,0-0.2c0-0.7-0.5-1.4-1.3-1.4c-0.1,0-0.1,0-0.2,0H34.3C33.5,15.7,32.9,16.3,32.9,17.1z"/>
	<path d="M27.2,11.4c0,0.1,0,0.1,0,0.2v24.2c0,0.7,0.5,1.4,1.3,1.4c0.1,0,0.1,0,0.2,0c0.7,0,1.4-0.5,1.4-1.3c0-0.1,0-0.1,0-0.2V12.9
		h39.9c0.7,0,1.4-0.5,1.4-1.3c0-0.1,0-0.1,0-0.2c0-0.7-0.5-1.4-1.3-1.4c-0.1,0-0.1,0-0.2,0H28.6C27.8,10,27.2,10.6,27.2,11.4z"/>
	<path d="M24.3,30.2c0-0.1,0-0.1,0-0.2V7.2h39.9c0.7,0,1.4-0.5,1.4-1.3c0-0.1,0-0.1,0-0.2c0-0.7-0.5-1.4-1.3-1.4c-0.1,0-0.1,0-0.2,0
		H22.9c-0.7,0-1.4,0.5-1.4,1.3c0,0.1,0,0.1,0,0.2V30c0,0.7,0.5,1.4,1.3,1.4c0.1,0,0.1,0,0.2,0C23.6,31.5,24.3,30.9,24.3,30.2z"/>
</g>
</svg>
