<?xml version="1.0" encoding="utf-8"?>
<!-- Generator: Adobe Illustrator 23.0.4, SVG Export Plug-In . SVG Version: 6.00 Build 0)  -->
<svg version="1.1" id="Layer_1" xmlns="http://www.w3.org/2000/svg" xmlns:xlink="http://www.w3.org/1999/xlink" x="0px" y="0px"
	 viewBox="0 0 100 100" style="enable-background:new 0 0 100 100;" xml:space="preserve">
<style type="text/css">
	.st0{fill-rule:evenodd;clip-rule:evenodd;fill:#FFFFFF;}
</style>
<g id="Group_13" transform="translate(-1815.142 -1753.133)">
	<path id="Path_19" class="st0" d="M1896.4,1787.5c-4.9,0-9.5-2.3-12.5-6.2l-34.5,20.7c0.1,0.4,0.1,0.8,0.1,1.2c0,0.5-0.1,1-0.2,1.5
		l34.4,20.7c5-7,14.8-8.5,21.7-3.4s8.5,14.8,3.4,21.7s-14.8,8.5-21.7,3.4c-4.1-2.9-6.4-7.7-6.4-12.7c0-0.6,0.1-1.1,0.2-1.7
		l-34.4-20.4c-5.1,7-14.8,8.5-21.8,3.5c-7-5.1-8.5-14.8-3.5-21.8c5.1-7,14.8-8.5,21.8-3.5c1.2,0.9,2.3,1.9,3.2,3.2l34.7-20.3
		c0-0.5-0.2-1-0.2-1.5c0-8.6,7-15.6,15.6-15.6s15.6,7,15.6,15.6C1912,1780.5,1905,1787.5,1896.4,1787.5L1896.4,1787.5z
		 M1896.4,1842.2c4.3,0,7.8-3.5,7.8-7.8s-3.5-7.8-7.8-7.8c-4.3,0-7.8,3.5-7.8,7.8c0,0,0,0,0,0
		C1888.6,1838.7,1892.1,1842.2,1896.4,1842.2C1896.4,1842.2,1896.4,1842.2,1896.4,1842.2z M1833.9,1795.3c-4.3,0-7.8,3.5-7.8,7.8
		s3.5,7.8,7.8,7.8s7.8-3.5,7.8-7.8c0,0,0,0,0,0C1841.7,1798.8,1838.2,1795.3,1833.9,1795.3
		C1833.9,1795.3,1833.9,1795.3,1833.9,1795.3z M1896.4,1764.1c-4.3,0-7.8,3.5-7.8,7.8c0,4.3,3.5,7.8,7.8,7.8c4.3,0,7.8-3.5,7.8-7.8
		c0,0,0,0,0,0C1904.2,1767.6,1900.7,1764.1,1896.4,1764.1C1896.4,1764.1,1896.4,1764.1,1896.4,1764.1z"/>
</g>
</svg>
